<svg width="216" height="26" viewBox="0 0 216 26" fill="none" xmlns="http://www.w3.org/2000/svg">
<path d="M4.12738 0.346008L11.1711 20.9582H11.4553L18.499 0.346008H22.6264L13.519 25.654H9.10741L0 0.346008H4.12738Z" fill="white"/>
<path d="M33.2408 25.654V0.346008H49.1077V3.63308H37.0593V11.3441H48.2798V14.6188H37.0593V22.3669H49.256V25.654H33.2408Z" fill="white"/>
<path d="M61.168 25.654V0.346008H70.1889C72.1496 0.346008 73.7766 0.683777 75.0701 1.35932C76.3717 2.03485 77.3438 2.9699 77.9864 4.16445C78.629 5.35076 78.9503 6.72243 78.9503 8.27947C78.9503 9.82826 78.6249 11.1917 77.974 12.3698C77.3315 13.5396 76.3593 14.4499 75.0577 15.1008C73.7643 15.7516 72.1372 16.077 70.1765 16.077H63.3429V12.7899H69.8305C71.0662 12.7899 72.0713 12.6128 72.8457 12.2586C73.6283 11.9043 74.2009 11.3894 74.5634 10.7139C74.9259 10.0383 75.1071 9.22687 75.1071 8.27947C75.1071 7.32383 74.9218 6.49588 74.551 5.79563C74.1886 5.09537 73.616 4.55989 72.8334 4.18916C72.059 3.8102 71.0415 3.62072 69.7811 3.62072H64.9864V25.654H61.168ZM73.6613 14.2357L79.9142 25.654H75.5643L69.4351 14.2357H73.6613Z" fill="white"/>
<path d="M89.3083 3.63308V0.346008H108.895V3.63308H100.998V25.654H97.1923V3.63308H89.3083Z" fill="white"/>
<path d="M124.001 0.346008V25.654H120.183V0.346008H124.001Z" fill="white"/>
<path d="M157.542 8.57605H153.686C153.538 7.75222 153.262 7.02725 152.858 6.40114C152.454 5.77503 151.96 5.24366 151.375 4.80703C150.79 4.3704 150.135 4.04087 149.41 3.81844C148.694 3.59601 147.932 3.48479 147.124 3.48479C145.666 3.48479 144.36 3.85139 143.207 4.5846C142.062 5.31781 141.156 6.3929 140.488 7.80989C139.829 9.22687 139.5 10.9569 139.5 13C139.5 15.0596 139.829 16.7978 140.488 18.2148C141.156 19.6318 142.066 20.7028 143.219 21.4278C144.373 22.1527 145.67 22.5152 147.112 22.5152C147.911 22.5152 148.669 22.4081 149.386 22.1939C150.111 21.9715 150.766 21.6461 151.35 21.2177C151.935 20.7893 152.43 20.2662 152.833 19.6483C153.245 19.0222 153.53 18.3054 153.686 17.4981L157.542 17.5105C157.336 18.7544 156.936 19.8996 156.343 20.9458C155.758 21.9838 155.004 22.8818 154.081 23.6397C153.167 24.3894 152.121 24.9702 150.943 25.3821C149.765 25.794 148.479 26 147.087 26C144.896 26 142.943 25.481 141.23 24.443C139.516 23.3967 138.165 21.9015 137.177 19.9572C136.196 18.013 135.706 15.6939 135.706 13C135.706 10.2978 136.2 7.97877 137.189 6.04278C138.178 4.09854 139.529 2.60741 141.242 1.56939C142.956 0.523131 144.904 0 147.087 0C148.43 0 149.682 0.1936 150.844 0.5808C152.014 0.959759 153.064 1.51996 153.995 2.26141C154.926 2.99461 155.696 3.89259 156.306 4.95532C156.915 6.00982 157.327 7.21673 157.542 8.57605Z" fill="white"/>
<path d="M171.038 25.654H166.985L176.093 0.346008H180.504L189.612 25.654H185.558L178.403 4.94296H178.206L171.038 25.654ZM171.718 15.7433H184.866V18.9563H171.718V15.7433Z" fill="white"/>
<path d="M200.226 25.654V0.346008H204.044V22.3669H215.512V25.654H200.226Z" fill="white"/>
</svg>
